<?xml version="1.0" standalone="no"?><!DOCTYPE svg PUBLIC "-//W3C//DTD SVG 1.1//EN" "http://www.w3.org/Graphics/SVG/1.1/DTD/svg11.dtd"><svg class="icon" width="200px" height="200.00px" viewBox="0 0 1024 1024" version="1.1" xmlns="http://www.w3.org/2000/svg"><path d="M42.7 170.7l938.7 0 0 682.67-938.7 0 0-682.67Z" fill="#C3DFEC" /><path d="M960 192v640H64V192h896m0-42.7H64A42.7 42.7 0 0 0 21.3 192v640A42.7 42.7 0 0 0 64 874.7h896a42.7 42.7 0 0 0 42.7-42.7V192a42.7 42.7 0 0 0-42.7-42.7z" fill="#445C95" /><path d="M277.3 298.7A85.3 85.3 0 1 1 192 384a85.3 85.3 0 0 1 85.3-85.3zM213.3 522.7h128a85.3 85.3 0 0 1 85.4 85.3v85.3H128V608a85.3 85.3 0 0 1 85.3-85.3zM618.7 394.7H832a21.3 21.3 0 0 1 0 42.7H618.7a21.3 21.3 0 0 1 0-42.7zM533.3 522.7H832a21.3 21.3 0 1 1 0 42.7H533.3a21.3 21.3 0 1 1 0-42.7zM533.3 650.7H832a21.3 21.3 0 0 1 0 42.7H533.3a21.3 21.3 0 0 1 0-42.7z" fill="#445C95" /></svg>